PathFileType	4	(X/Y/Z)	C:\Users\italobelli\Desktop\GitHub\PTbot_officialCBL\Personal_Results\ABD23_noisy2.trc
DataRate	CameraRate	NumFrames	NumMarkers	Units	OrigDataRate	OrigDataStartFrame	OrigNumFrames
105.444444	105.444444	21	9	m	105.444444	594	950
Frame#	Time		gu		centelbow		EpL		centpxt8		centijc7		ij		ts		aa		ai
			X1	Y1	Z1	X2	Y2	Z2	X3	Y3	Z3	X4	Y4	Z4	X5	Y5	Z5	X6	Y6	Z6	X7	Y7	Z7	X8	Y8	Z8	X9	Y9	Z9

594	5.6238	-0.098008	0.020091	0.15261	-0.083007	-0.13981	0.33822	-0.090143	-0.11374	0.35439	-0.046816	-0.15316	-0.008669	-0.046816	0.031938	-0.008669	0	0	0	-0.12969	0.023407	0.026967	-0.1344	0.038411	0.14531	-0.13497	-0.08843	0.046521
595	5.6333	-0.097987	0.019378	0.15293	-0.083931	-0.14303	0.33636	-0.090985	-0.11717	0.35283	-0.046816	-0.15316	-0.008669	-0.046816	0.031938	-0.008669	0	0	0	-0.12964	0.023625	0.027127	-0.13434	0.038096	0.14553	-0.13505	-0.088294	0.046178
596	5.6428	-0.097967	0.018659	0.15324	-0.084867	-0.14625	0.33445	-0.091841	-0.12061	0.35124	-0.046816	-0.15316	-0.008669	-0.046816	0.031938	-0.008669	0	0	0	-0.12959	0.023841	0.027288	-0.13428	0.037782	0.14576	-0.13514	-0.088156	0.045837
597	5.6523	-0.097946	0.017936	0.15355	-0.085816	-0.14946	0.3325	-0.09271	-0.12404	0.3496	-0.046816	-0.15316	-0.008669	-0.046816	0.031938	-0.008669	0	0	0	-0.12954	0.024055	0.02745	-0.13423	0.037471	0.14598	-0.13524	-0.088017	0.045499
598	5.6617	-0.097926	0.017208	0.15386	-0.086775	-0.15267	0.3305	-0.093589	-0.12747	0.34793	-0.046816	-0.15316	-0.008669	-0.046816	0.031938	-0.008669	0	0	0	-0.12949	0.024266	0.027614	-0.13417	0.037161	0.1462	-0.13533	-0.087877	0.045165
599	5.6712	-0.097906	0.016477	0.15417	-0.087742	-0.15586	0.32846	-0.094477	-0.13089	0.34622	-0.046816	-0.15316	-0.008669	-0.046816	0.031938	-0.008669	0	0	0	-0.12944	0.024475	0.027779	-0.13411	0.036854	0.14642	-0.13543	-0.087736	0.044834
600	5.6807	-0.097887	0.015744	0.15446	-0.088716	-0.15903	0.32638	-0.095372	-0.1343	0.34448	-0.046816	-0.15316	-0.008669	-0.046816	0.031938	-0.008669	0	0	0	-0.12939	0.024681	0.027944	-0.13406	0.036549	0.14664	-0.13554	-0.087594	0.044508
601	5.6902	-0.097868	0.01501	0.15476	-0.089696	-0.16219	0.32428	-0.096274	-0.13769	0.34271	-0.046816	-0.15316	-0.008669	-0.046816	0.031938	-0.008669	0	0	0	-0.12935	0.024884	0.02811	-0.134	0.036247	0.14685	-0.13564	-0.087453	0.044186
602	5.6997	-0.097849	0.014276	0.15505	-0.090681	-0.16532	0.32214	-0.09718	-0.14106	0.34092	-0.046816	-0.15316	-0.008669	-0.046816	0.031938	-0.008669	0	0	0	-0.1293	0.025084	0.028276	-0.13395	0.035949	0.14707	-0.13575	-0.087311	0.043869
603	5.7092	-0.09783	0.013544	0.15534	-0.091667	-0.16842	0.31997	-0.098089	-0.1444	0.33909	-0.046816	-0.15316	-0.008669	-0.046816	0.031938	-0.008669	0	0	0	-0.12925	0.02528	0.028443	-0.13389	0.035653	0.14727	-0.13586	-0.087169	0.043556
604	5.7187	-0.097811	0.012813	0.15562	-0.092655	-0.17149	0.31778	-0.099	-0.14772	0.33725	-0.046816	-0.15316	-0.008669	-0.046816	0.031938	-0.008669	0	0	0	-0.12921	0.025473	0.02861	-0.13384	0.035361	0.14748	-0.13598	-0.087028	0.04325
605	5.7281	-0.097793	0.012086	0.15589	-0.093643	-0.17453	0.31557	-0.09991	-0.15101	0.33538	-0.046816	-0.15316	-0.008669	-0.046816	0.031938	-0.008669	0	0	0	-0.12916	0.025663	0.028776	-0.13378	0.035073	0.14769	-0.13609	-0.086887	0.042949
606	5.7376	-0.097775	0.011363	0.15617	-0.094628	-0.17752	0.31334	-0.10082	-0.15426	0.3335	-0.046816	-0.15316	-0.008669	-0.046816	0.031938	-0.008669	0	0	0	-0.12912	0.025849	0.028943	-0.13373	0.034789	0.14789	-0.13621	-0.086747	0.042654
607	5.7471	-0.097757	0.010645	0.15643	-0.09561	-0.18048	0.3111	-0.10172	-0.15748	0.3316	-0.046816	-0.15316	-0.008669	-0.046816	0.031938	-0.008669	0	0	0	-0.12908	0.02603	0.029108	-0.13367	0.034509	0.14808	-0.13633	-0.086608	0.042365
608	5.7566	-0.097739	0.009933	0.15669	-0.096587	-0.18339	0.30884	-0.10262	-0.16065	0.32969	-0.046816	-0.15316	-0.008669	-0.046816	0.031938	-0.008669	0	0	0	-0.12904	0.026208	0.029273	-0.13362	0.034234	0.14828	-0.13645	-0.08647	0.042083
609	5.7661	-0.097722	0.0092286	0.15694	-0.097557	-0.18625	0.30658	-0.10352	-0.16377	0.32777	-0.046816	-0.15316	-0.008669	-0.046816	0.031938	-0.008669	0	0	0	-0.129	0.026381	0.029438	-0.13356	0.033964	0.14847	-0.13657	-0.086334	0.041809
610	5.7756	-0.097705	0.0085324	0.15719	-0.09852	-0.18906	0.30431	-0.1044	-0.16684	0.32584	-0.046816	-0.15316	-0.008669	-0.046816	0.031938	-0.008669	0	0	0	-0.12895	0.026549	0.029601	-0.13351	0.033698	0.14866	-0.13669	-0.0862	0.041542
611	5.785	-0.097688	0.0078457	0.15743	-0.099472	-0.19181	0.30203	-0.10528	-0.16986	0.32391	-0.046816	-0.15316	-0.008669	-0.046816	0.031938	-0.008669	0	0	0	-0.12891	0.026713	0.029763	-0.13345	0.033438	0.14884	-0.13681	-0.086067	0.041282
612	5.7945	-0.097671	0.0071693	0.15766	-0.10041	-0.1945	0.29976	-0.10615	-0.17282	0.32198	-0.046816	-0.15316	-0.008669	-0.046816	0.031938	-0.008669	0	0	0	-0.12888	0.026872	0.029923	-0.1334	0.033183	0.14902	-0.13694	-0.085937	0.041031
613	5.804	-0.097654	0.0065043	0.15788	-0.10134	-0.19713	0.29749	-0.107	-0.17571	0.32004	-0.046816	-0.15316	-0.008669	-0.046816	0.031938	-0.008669	0	0	0	-0.12884	0.027026	0.030083	-0.13334	0.032934	0.1492	-0.13706	-0.085809	0.040788
614	5.8135	-0.097638	0.0058518	0.1581	-0.10226	-0.19968	0.29523	-0.10784	-0.17854	0.31811	-0.046816	-0.15316	-0.008669	-0.046816	0.031938	-0.008669	0	0	0	-0.1288	0.027174	0.03024	-0.13329	0.03269	0.14938	-0.13718	-0.085683	0.040554
